<svg xmlns="http://www.w3.org/2000/svg" xmlns:xlink="http://www.w3.org/1999/xlink" id="processonSvg1000" viewBox="224.0 60.0 672.0 460.5056838989258" width="672.0" height="460.5056838989258"><defs id="ProcessOnDefs1001"><pattern id="ProcessOnPattern1007" patternUnits="userSpaceOnUse" width="36.0" height="80.0" patternTransform="matrix(1.0,0.0,0.0,1.0,0.0,0.0)"><svg version="1.1" id="ilhwsa8q1" xmlns:xml="http://www.w3.org/XML/1998/namespace" xmlns="http://www.w3.org/2000/svg" xmlns:xlink="http://www.w3.org/1999/xlink" x="0px" y="0px" width="36px" height="80px" viewBox="0 0 36 80" enable-background="new 0 0 36 80" xml:space="preserve"> <g> <path fill="#1E3947" d="M33.279,80H2.716C1.197,80,0,78.795,0,77.283V2.718C0,1.197,1.197,0,2.716,0h30.563 C34.793,0,36,1.197,36,2.718v74.565C36,78.705,34.793,80,33.279,80z"/> <rect x="0.081" y="6.398" fill="#DCE9F7" width="35.919" height="0.884"/> <rect x="0.081" y="69.518" fill="#DCE9F7" width="35.918" height="0.884"/> <rect y="51.126" fill="#1A6684" width="36" height="0.481"/> <g> <rect x="5.2" y="11.68" fill="#236A8E" width="25.751" height="3.119"/> <rect x="5.2" y="15.608" fill="#236A8E" width="25.751" height="3.114"/> <rect x="5.833" y="12.877" fill="#DCE9F7" width="4.648" height="0.966"/> <rect x="5.833" y="16.72" fill="#DCE9F7" width="4.648" height="0.953"/> </g> <g> <rect x="5.2" y="20.642" fill="#236A8E" width="25.751" height="3.121"/> <rect x="5.2" y="24.557" fill="#236A8E" width="25.751" height="3.116"/> <rect x="5.833" y="21.841" fill="#DCE9F7" width="4.648" height="0.956"/> <rect x="5.833" y="25.687" fill="#DCE9F7" width="4.648" height="0.953"/> </g> <g> <rect x="5.2" y="31.277" fill="#236A8E" width="25.751" height="3.114"/> <rect x="5.2" y="35.201" fill="#236A8E" width="25.751" height="3.119"/> <rect x="5.833" y="32.483" fill="#DCE9F7" width="4.648" height="0.957"/> <rect x="5.833" y="36.318" fill="#DCE9F7" width="4.648" height="0.964"/> </g> <path opacity="0.62" fill="#FF466A" enable-background="new " d="M31.675,72.958c0.734,0,1.358,0.604,1.358,1.367 c0,0.744-0.624,1.349-1.358,1.349c-0.738,0-1.363-0.604-1.363-1.349C30.312,73.563,30.937,72.958,31.675,72.958z"/> <path opacity="0.62" fill="#43D190" enable-background="new " d="M26.629,72.958c0.759,0,1.364,0.604,1.364,1.367 c0,0.744-0.605,1.349-1.364,1.349c-0.746,0-1.352-0.604-1.352-1.349C25.277,73.563,25.883,72.958,26.629,72.958z"/> <g> <rect x="2.716" y="52.233" fill="#041323" width="1.36" height="16.405"/> <rect x="4.959" y="52.233" fill="#041323" width="1.358" height="16.405"/> <rect x="7.122" y="52.233" fill="#041323" width="1.358" height="16.405"/> <rect x="9.353" y="52.233" fill="#041323" width="1.363" height="16.405"/> <rect x="11.517" y="52.233" fill="#041323" width="1.358" height="16.405"/> <rect x="13.76" y="52.233" fill="#041323" width="1.358" height="16.405"/> <rect x="15.911" y="52.233" fill="#041323" width="1.366" height="16.405"/> <rect x="18.156" y="52.233" fill="#041323" width="1.376" height="16.405"/> <rect x="20.38" y="52.233" fill="#041323" width="1.377" height="16.405"/> <rect x="22.562" y="52.233" fill="#041323" width="1.349" height="16.405"/> <rect x="24.795" y="52.233" fill="#041323" width="1.365" height="16.405"/> <rect x="26.941" y="52.233" fill="#041323" width="1.374" height="16.405"/> <rect x="29.2" y="52.233" fill="#041323" width="1.349" height="16.405"/> <rect x="31.434" y="52.233" fill="#041323" width="1.378" height="16.405"/> </g> </g> </svg> </pattern><pattern id="ProcessOnPattern1012" patternUnits="userSpaceOnUse" width="36.0" height="80.0" patternTransform="matrix(1.0,0.0,0.0,1.0,0.0,0.0)"><svg version="1.1" id="ilhwsa8q1" xmlns:xml="http://www.w3.org/XML/1998/namespace" xmlns="http://www.w3.org/2000/svg" xmlns:xlink="http://www.w3.org/1999/xlink" x="0px" y="0px" width="36px" height="80px" viewBox="0 0 36 80" enable-background="new 0 0 36 80" xml:space="preserve"> <g> <path fill="#1E3947" d="M33.279,80H2.716C1.197,80,0,78.795,0,77.283V2.718C0,1.197,1.197,0,2.716,0h30.563 C34.793,0,36,1.197,36,2.718v74.565C36,78.705,34.793,80,33.279,80z"/> <rect x="0.081" y="6.398" fill="#DCE9F7" width="35.919" height="0.884"/> <rect x="0.081" y="69.518" fill="#DCE9F7" width="35.918" height="0.884"/> <rect y="51.126" fill="#1A6684" width="36" height="0.481"/> <g> <rect x="5.2" y="11.68" fill="#236A8E" width="25.751" height="3.119"/> <rect x="5.2" y="15.608" fill="#236A8E" width="25.751" height="3.114"/> <rect x="5.833" y="12.877" fill="#DCE9F7" width="4.648" height="0.966"/> <rect x="5.833" y="16.72" fill="#DCE9F7" width="4.648" height="0.953"/> </g> <g> <rect x="5.2" y="20.642" fill="#236A8E" width="25.751" height="3.121"/> <rect x="5.2" y="24.557" fill="#236A8E" width="25.751" height="3.116"/> <rect x="5.833" y="21.841" fill="#DCE9F7" width="4.648" height="0.956"/> <rect x="5.833" y="25.687" fill="#DCE9F7" width="4.648" height="0.953"/> </g> <g> <rect x="5.2" y="31.277" fill="#236A8E" width="25.751" height="3.114"/> <rect x="5.2" y="35.201" fill="#236A8E" width="25.751" height="3.119"/> <rect x="5.833" y="32.483" fill="#DCE9F7" width="4.648" height="0.957"/> <rect x="5.833" y="36.318" fill="#DCE9F7" width="4.648" height="0.964"/> </g> <path opacity="0.62" fill="#FF466A" enable-background="new " d="M31.675,72.958c0.734,0,1.358,0.604,1.358,1.367 c0,0.744-0.624,1.349-1.358,1.349c-0.738,0-1.363-0.604-1.363-1.349C30.312,73.563,30.937,72.958,31.675,72.958z"/> <path opacity="0.62" fill="#43D190" enable-background="new " d="M26.629,72.958c0.759,0,1.364,0.604,1.364,1.367 c0,0.744-0.605,1.349-1.364,1.349c-0.746,0-1.352-0.604-1.352-1.349C25.277,73.563,25.883,72.958,26.629,72.958z"/> <g> <rect x="2.716" y="52.233" fill="#041323" width="1.36" height="16.405"/> <rect x="4.959" y="52.233" fill="#041323" width="1.358" height="16.405"/> <rect x="7.122" y="52.233" fill="#041323" width="1.358" height="16.405"/> <rect x="9.353" y="52.233" fill="#041323" width="1.363" height="16.405"/> <rect x="11.517" y="52.233" fill="#041323" width="1.358" height="16.405"/> <rect x="13.76" y="52.233" fill="#041323" width="1.358" height="16.405"/> <rect x="15.911" y="52.233" fill="#041323" width="1.366" height="16.405"/> <rect x="18.156" y="52.233" fill="#041323" width="1.376" height="16.405"/> <rect x="20.38" y="52.233" fill="#041323" width="1.377" height="16.405"/> <rect x="22.562" y="52.233" fill="#041323" width="1.349" height="16.405"/> <rect x="24.795" y="52.233" fill="#041323" width="1.365" height="16.405"/> <rect x="26.941" y="52.233" fill="#041323" width="1.374" height="16.405"/> <rect x="29.2" y="52.233" fill="#041323" width="1.349" height="16.405"/> <rect x="31.434" y="52.233" fill="#041323" width="1.378" height="16.405"/> </g> </g> </svg> </pattern><pattern id="ProcessOnPattern1017" patternUnits="userSpaceOnUse" width="36.0" height="80.0" patternTransform="matrix(1.0,0.0,0.0,1.0,0.0,0.0)"><svg version="1.1" id="ilhwsa8q1" xmlns:xml="http://www.w3.org/XML/1998/namespace" xmlns="http://www.w3.org/2000/svg" xmlns:xlink="http://www.w3.org/1999/xlink" x="0px" y="0px" width="36px" height="80px" viewBox="0 0 36 80" enable-background="new 0 0 36 80" xml:space="preserve"> <g> <path fill="#1E3947" d="M33.279,80H2.716C1.197,80,0,78.795,0,77.283V2.718C0,1.197,1.197,0,2.716,0h30.563 C34.793,0,36,1.197,36,2.718v74.565C36,78.705,34.793,80,33.279,80z"/> <rect x="0.081" y="6.398" fill="#DCE9F7" width="35.919" height="0.884"/> <rect x="0.081" y="69.518" fill="#DCE9F7" width="35.918" height="0.884"/> <rect y="51.126" fill="#1A6684" width="36" height="0.481"/> <g> <rect x="5.2" y="11.68" fill="#236A8E" width="25.751" height="3.119"/> <rect x="5.2" y="15.608" fill="#236A8E" width="25.751" height="3.114"/> <rect x="5.833" y="12.877" fill="#DCE9F7" width="4.648" height="0.966"/> <rect x="5.833" y="16.72" fill="#DCE9F7" width="4.648" height="0.953"/> </g> <g> <rect x="5.2" y="20.642" fill="#236A8E" width="25.751" height="3.121"/> <rect x="5.2" y="24.557" fill="#236A8E" width="25.751" height="3.116"/> <rect x="5.833" y="21.841" fill="#DCE9F7" width="4.648" height="0.956"/> <rect x="5.833" y="25.687" fill="#DCE9F7" width="4.648" height="0.953"/> </g> <g> <rect x="5.2" y="31.277" fill="#236A8E" width="25.751" height="3.114"/> <rect x="5.2" y="35.201" fill="#236A8E" width="25.751" height="3.119"/> <rect x="5.833" y="32.483" fill="#DCE9F7" width="4.648" height="0.957"/> <rect x="5.833" y="36.318" fill="#DCE9F7" width="4.648" height="0.964"/> </g> <path opacity="0.62" fill="#FF466A" enable-background="new " d="M31.675,72.958c0.734,0,1.358,0.604,1.358,1.367 c0,0.744-0.624,1.349-1.358,1.349c-0.738,0-1.363-0.604-1.363-1.349C30.312,73.563,30.937,72.958,31.675,72.958z"/> <path opacity="0.62" fill="#43D190" enable-background="new " d="M26.629,72.958c0.759,0,1.364,0.604,1.364,1.367 c0,0.744-0.605,1.349-1.364,1.349c-0.746,0-1.352-0.604-1.352-1.349C25.277,73.563,25.883,72.958,26.629,72.958z"/> <g> <rect x="2.716" y="52.233" fill="#041323" width="1.36" height="16.405"/> <rect x="4.959" y="52.233" fill="#041323" width="1.358" height="16.405"/> <rect x="7.122" y="52.233" fill="#041323" width="1.358" height="16.405"/> <rect x="9.353" y="52.233" fill="#041323" width="1.363" height="16.405"/> <rect x="11.517" y="52.233" fill="#041323" width="1.358" height="16.405"/> <rect x="13.76" y="52.233" fill="#041323" width="1.358" height="16.405"/> <rect x="15.911" y="52.233" fill="#041323" width="1.366" height="16.405"/> <rect x="18.156" y="52.233" fill="#041323" width="1.376" height="16.405"/> <rect x="20.38" y="52.233" fill="#041323" width="1.377" height="16.405"/> <rect x="22.562" y="52.233" fill="#041323" width="1.349" height="16.405"/> <rect x="24.795" y="52.233" fill="#041323" width="1.365" height="16.405"/> <rect x="26.941" y="52.233" fill="#041323" width="1.374" height="16.405"/> <rect x="29.2" y="52.233" fill="#041323" width="1.349" height="16.405"/> <rect x="31.434" y="52.233" fill="#041323" width="1.378" height="16.405"/> </g> </g> </svg> </pattern><pattern id="ProcessOnPattern1022" patternUnits="userSpaceOnUse" width="36.0" height="80.0" patternTransform="matrix(1.0,0.0,0.0,1.0,0.0,0.0)"><svg version="1.1" id="ilhwsa8q1" xmlns:xml="http://www.w3.org/XML/1998/namespace" xmlns="http://www.w3.org/2000/svg" xmlns:xlink="http://www.w3.org/1999/xlink" x="0px" y="0px" width="36px" height="80px" viewBox="0 0 36 80" enable-background="new 0 0 36 80" xml:space="preserve"> <g> <path fill="#1E3947" d="M33.279,80H2.716C1.197,80,0,78.795,0,77.283V2.718C0,1.197,1.197,0,2.716,0h30.563 C34.793,0,36,1.197,36,2.718v74.565C36,78.705,34.793,80,33.279,80z"/> <rect x="0.081" y="6.398" fill="#DCE9F7" width="35.919" height="0.884"/> <rect x="0.081" y="69.518" fill="#DCE9F7" width="35.918" height="0.884"/> <rect y="51.126" fill="#1A6684" width="36" height="0.481"/> <g> <rect x="5.2" y="11.68" fill="#236A8E" width="25.751" height="3.119"/> <rect x="5.2" y="15.608" fill="#236A8E" width="25.751" height="3.114"/> <rect x="5.833" y="12.877" fill="#DCE9F7" width="4.648" height="0.966"/> <rect x="5.833" y="16.72" fill="#DCE9F7" width="4.648" height="0.953"/> </g> <g> <rect x="5.2" y="20.642" fill="#236A8E" width="25.751" height="3.121"/> <rect x="5.2" y="24.557" fill="#236A8E" width="25.751" height="3.116"/> <rect x="5.833" y="21.841" fill="#DCE9F7" width="4.648" height="0.956"/> <rect x="5.833" y="25.687" fill="#DCE9F7" width="4.648" height="0.953"/> </g> <g> <rect x="5.2" y="31.277" fill="#236A8E" width="25.751" height="3.114"/> <rect x="5.2" y="35.201" fill="#236A8E" width="25.751" height="3.119"/> <rect x="5.833" y="32.483" fill="#DCE9F7" width="4.648" height="0.957"/> <rect x="5.833" y="36.318" fill="#DCE9F7" width="4.648" height="0.964"/> </g> <path opacity="0.62" fill="#FF466A" enable-background="new " d="M31.675,72.958c0.734,0,1.358,0.604,1.358,1.367 c0,0.744-0.624,1.349-1.358,1.349c-0.738,0-1.363-0.604-1.363-1.349C30.312,73.563,30.937,72.958,31.675,72.958z"/> <path opacity="0.62" fill="#43D190" enable-background="new " d="M26.629,72.958c0.759,0,1.364,0.604,1.364,1.367 c0,0.744-0.605,1.349-1.364,1.349c-0.746,0-1.352-0.604-1.352-1.349C25.277,73.563,25.883,72.958,26.629,72.958z"/> <g> <rect x="2.716" y="52.233" fill="#041323" width="1.36" height="16.405"/> <rect x="4.959" y="52.233" fill="#041323" width="1.358" height="16.405"/> <rect x="7.122" y="52.233" fill="#041323" width="1.358" height="16.405"/> <rect x="9.353" y="52.233" fill="#041323" width="1.363" height="16.405"/> <rect x="11.517" y="52.233" fill="#041323" width="1.358" height="16.405"/> <rect x="13.76" y="52.233" fill="#041323" width="1.358" height="16.405"/> <rect x="15.911" y="52.233" fill="#041323" width="1.366" height="16.405"/> <rect x="18.156" y="52.233" fill="#041323" width="1.376" height="16.405"/> <rect x="20.38" y="52.233" fill="#041323" width="1.377" height="16.405"/> <rect x="22.562" y="52.233" fill="#041323" width="1.349" height="16.405"/> <rect x="24.795" y="52.233" fill="#041323" width="1.365" height="16.405"/> <rect x="26.941" y="52.233" fill="#041323" width="1.374" height="16.405"/> <rect x="29.2" y="52.233" fill="#041323" width="1.349" height="16.405"/> <rect x="31.434" y="52.233" fill="#041323" width="1.378" height="16.405"/> </g> </g> </svg> </pattern><pattern id="ProcessOnPattern1027" patternUnits="userSpaceOnUse" width="76.0" height="48.0" patternTransform="matrix(0.98919677734375,0.0,0.0,1.0265151957670848,0.0,0.0)"><svg version="1.1" id="图形" xmlns="http://www.w3.org/2000/svg" xmlns:xlink="http://www.w3.org/1999/xlink" x="0px" y="0px" width="76px" height="48px" viewBox="0 0 76 48" enable-background="new 0 0 76 48" xml:space="preserve"> <path fill="#72ADCE" d="M64.119,21.457c0.015-0.451,0.021-0.863,0.021-1.186c0-5.415-2.107-10.506-5.936-14.334 C54.378,2.108,49.288,0,43.875,0c-4.194,0-8.32,1.428-11.931,4.129c-2.465,1.845-4.536,4.195-6.028,6.807 c-1.636-0.853-3.449-1.297-5.328-1.297c-3.008,0-5.899,1.396-8.141,3.93c-1.496,1.689-2.561,3.748-3.079,5.886 c-2.539,1.004-4.798,2.726-6.439,4.924C1.013,26.946,0,30.002,0,33.215C0,41.368,6.631,48,14.782,48v-0.035h47.954v0.02 C70.05,47.984,76,42.034,76,34.718C76,27.896,70.757,22.194,64.119,21.457z"/> </svg> </pattern><pattern id="ProcessOnPattern1032" patternUnits="userSpaceOnUse" width="200.0" height="20.0" patternTransform="matrix(2.965923309326172,0.0,0.0,1.0,0.0,0.0)"><svg version="1.1" id="ilhwsa8q1" xmlns:xml="http://www.w3.org/XML/1998/namespace" xmlns="http://www.w3.org/2000/svg" xmlns:xlink="http://www.w3.org/1999/xlink" x="0px" y="0px" width="200px" height="20px" viewBox="0 0 200 20" enable-background="new 0 0 200 20" xml:space="preserve"> <g> <path pointer-events="all" fill="#CCCCCC" d="M5.514,20C2.075,17.78,0,14.02,0,10S2.075,2.22,5.514,0h188.972 C197.923,2.22,200,5.98,200,10s-2.077,7.78-5.514,10H5.514z"/> <path fill="#333542" d="M194.486,0C197.923,2.22,200,5.98,200,10s-2.077,7.78-5.514,10c-3.442-2.22-5.515-5.98-5.515-10 S191.044,2.22,194.486,0"/> </g> </svg> </pattern><pattern id="ProcessOnPattern1037" patternUnits="userSpaceOnUse" width="200.0" height="20.0" patternTransform="matrix(2.965923309326172,0.0,0.0,1.0,0.0,0.0)"><svg version="1.1" id="ilhwsa8q1" xmlns:xml="http://www.w3.org/XML/1998/namespace" xmlns="http://www.w3.org/2000/svg" xmlns:xlink="http://www.w3.org/1999/xlink" x="0px" y="0px" width="200px" height="20px" viewBox="0 0 200 20" enable-background="new 0 0 200 20" xml:space="preserve"> <g> <path pointer-events="all" fill="#CCCCCC" d="M5.514,20C2.075,17.78,0,14.02,0,10S2.075,2.22,5.514,0h188.972 C197.923,2.22,200,5.98,200,10s-2.077,7.78-5.514,10H5.514z"/> <path fill="#333542" d="M194.486,0C197.923,2.22,200,5.98,200,10s-2.077,7.78-5.514,10c-3.442-2.22-5.515-5.98-5.515-10 S191.044,2.22,194.486,0"/> </g> </svg> </pattern><pattern id="ProcessOnPattern1060" patternUnits="userSpaceOnUse" width="200.0" height="20.0" patternTransform="matrix(2.965923309326172,0.0,0.0,1.05,0.0,0.0)"><svg version="1.1" id="ilhwsa8q1" xmlns:xml="http://www.w3.org/XML/1998/namespace" xmlns="http://www.w3.org/2000/svg" xmlns:xlink="http://www.w3.org/1999/xlink" x="0px" y="0px" width="200px" height="20px" viewBox="0 0 200 20" enable-background="new 0 0 200 20" xml:space="preserve"> <g> <path pointer-events="all" fill="#CCCCCC" d="M5.514,20C2.075,17.78,0,14.02,0,10S2.075,2.22,5.514,0h188.972 C197.923,2.22,200,5.98,200,10s-2.077,7.78-5.514,10H5.514z"/> <path fill="#333542" d="M194.486,0C197.923,2.22,200,5.98,200,10s-2.077,7.78-5.514,10c-3.442-2.22-5.515-5.98-5.515-10 S191.044,2.22,194.486,0"/> </g> </svg> </pattern><pattern id="ProcessOnPattern1065" patternUnits="userSpaceOnUse" width="77.0" height="65.0" patternTransform="matrix(1.0,0.0,0.0,1.0,0.0,0.0)"><svg version="1.1" id="ilhwsa8q1" xmlns:xml="http://www.w3.org/XML/1998/namespace" xmlns="http://www.w3.org/2000/svg" xmlns:xlink="http://www.w3.org/1999/xlink" x="0px" y="0px" width="77px" height="65px" viewBox="0 0 77 65" enable-background="new 0 0 77 65" xml:space="preserve"> <g> <g> <path fill="#1B2E3D" d="M75.757,65H49.973c-0.711,0-1.242-0.592-1.242-1.24V1.241C48.73,0.532,49.322,0,49.973,0h25.784 C76.467,0,77,0.591,77,1.241V63.7C77,64.408,76.407,65,75.757,65z"/> <path fill="#D8DDE1" d="M74.279,62.104H51.154c-0.709,0-1.24-0.59-1.24-1.24V2.482c0-0.709,0.592-1.241,1.24-1.241h23.125 c0.709,0,1.24,0.591,1.24,1.241v58.381C75.52,61.574,74.93,62.104,74.279,62.104z"/> <path fill="#36485C" d="M72.801,6.086h-19.93c-0.355,0-0.594-0.296-0.594-0.591V4.787c0-0.354,0.298-0.591,0.594-0.591h19.93 c0.355,0,0.592,0.295,0.592,0.591v0.709C73.393,5.791,73.156,6.086,72.801,6.086z"/> <path fill="#36485C" d="M72.918,14.595h-19.93c-0.355,0-0.592-0.294-0.592-0.59v-2.364c0-0.354,0.297-0.591,0.592-0.591h19.93 c0.355,0,0.592,0.296,0.592,0.591v2.364C73.51,14.301,73.271,14.595,72.918,14.595z"/> <g> <rect x="48.671" y="46.092" fill="#495A5E" width="28.329" height="0.59"/> </g> <g> <rect x="48.671" y="8.272" fill="#495A5E" width="28.329" height="0.591"/> </g> <ellipse fill="#2A6ED1" cx="62.982" cy="34.154" rx="1.539" ry="1.595"/> </g> <path fill="#1B2E3D" d="M31.048,59.386h-4.022c-0.65,0-1.183-0.53-1.183-1.182V51.23c0-0.647,0.533-1.182,1.183-1.182h4.022 c0.65,0,1.182,0.533,1.182,1.182v6.974C32.23,58.855,31.698,59.386,31.048,59.386z"/> <path fill="#324556" d="M57.426,53.771H0.591C0.237,53.771,0,53.477,0,53.182V17.728c0-0.355,0.295-0.591,0.591-0.591h56.834 c0.353,0,0.591,0.295,0.591,0.591v35.454C58.016,53.536,57.777,53.771,57.426,53.771z"/> <path fill="#FFFFFF" d="M56.359,52.59H1.715c-0.355,0-0.592-0.296-0.592-0.59V18.968c0-0.354,0.296-0.591,0.592-0.591h54.645 c0.354,0,0.591,0.295,0.591,0.591V52C56.95,52.294,56.654,52.59,56.359,52.59z"/> <path fill="#324556" d="M42.462,59.979H15.554c-0.237,0-0.414-0.18-0.414-0.414v-0.828c0-0.235,0.177-0.412,0.414-0.412h26.908 c0.237,0,0.413,0.177,0.413,0.412v0.826C42.875,59.799,42.699,59.979,42.462,59.979z"/> </g> </svg> </pattern><pattern id="ProcessOnPattern1070" patternUnits="userSpaceOnUse" width="77.0" height="65.0" patternTransform="matrix(1.0,0.0,0.0,1.0,0.0,0.0)"><svg version="1.1" id="ilhwsa8q1" xmlns:xml="http://www.w3.org/XML/1998/namespace" xmlns="http://www.w3.org/2000/svg" xmlns:xlink="http://www.w3.org/1999/xlink" x="0px" y="0px" width="77px" height="65px" viewBox="0 0 77 65" enable-background="new 0 0 77 65" xml:space="preserve"> <g> <g> <path fill="#1B2E3D" d="M75.757,65H49.973c-0.711,0-1.242-0.592-1.242-1.24V1.241C48.73,0.532,49.322,0,49.973,0h25.784 C76.467,0,77,0.591,77,1.241V63.7C77,64.408,76.407,65,75.757,65z"/> <path fill="#D8DDE1" d="M74.279,62.104H51.154c-0.709,0-1.24-0.59-1.24-1.24V2.482c0-0.709,0.592-1.241,1.24-1.241h23.125 c0.709,0,1.24,0.591,1.24,1.241v58.381C75.52,61.574,74.93,62.104,74.279,62.104z"/> <path fill="#36485C" d="M72.801,6.086h-19.93c-0.355,0-0.594-0.296-0.594-0.591V4.787c0-0.354,0.298-0.591,0.594-0.591h19.93 c0.355,0,0.592,0.295,0.592,0.591v0.709C73.393,5.791,73.156,6.086,72.801,6.086z"/> <path fill="#36485C" d="M72.918,14.595h-19.93c-0.355,0-0.592-0.294-0.592-0.59v-2.364c0-0.354,0.297-0.591,0.592-0.591h19.93 c0.355,0,0.592,0.296,0.592,0.591v2.364C73.51,14.301,73.271,14.595,72.918,14.595z"/> <g> <rect x="48.671" y="46.092" fill="#495A5E" width="28.329" height="0.59"/> </g> <g> <rect x="48.671" y="8.272" fill="#495A5E" width="28.329" height="0.591"/> </g> <ellipse fill="#2A6ED1" cx="62.982" cy="34.154" rx="1.539" ry="1.595"/> </g> <path fill="#1B2E3D" d="M31.048,59.386h-4.022c-0.65,0-1.183-0.53-1.183-1.182V51.23c0-0.647,0.533-1.182,1.183-1.182h4.022 c0.65,0,1.182,0.533,1.182,1.182v6.974C32.23,58.855,31.698,59.386,31.048,59.386z"/> <path fill="#324556" d="M57.426,53.771H0.591C0.237,53.771,0,53.477,0,53.182V17.728c0-0.355,0.295-0.591,0.591-0.591h56.834 c0.353,0,0.591,0.295,0.591,0.591v35.454C58.016,53.536,57.777,53.771,57.426,53.771z"/> <path fill="#FFFFFF" d="M56.359,52.59H1.715c-0.355,0-0.592-0.296-0.592-0.59V18.968c0-0.354,0.296-0.591,0.592-0.591h54.645 c0.354,0,0.591,0.295,0.591,0.591V52C56.95,52.294,56.654,52.59,56.359,52.59z"/> <path fill="#324556" d="M42.462,59.979H15.554c-0.237,0-0.414-0.18-0.414-0.414v-0.828c0-0.235,0.177-0.412,0.414-0.412h26.908 c0.237,0,0.413,0.177,0.413,0.412v0.826C42.875,59.799,42.699,59.979,42.462,59.979z"/> </g> </svg> </pattern><pattern id="ProcessOnPattern1081" patternUnits="userSpaceOnUse" width="78.0" height="62.0" patternTransform="matrix(0.5745556171123798,0.0,0.0,0.5564516129032258,0.0,0.0)"><svg version="1.1" id="svg2" xmlns:dc="http://purl.org/dc/elements/1.1/" xmlns:cc="http://creativecommons.org/ns#" xmlns:rdf="http://www.w3.org/1999/02/22-rdf-syntax-ns#" xmlns:svg="http://www.w3.org/2000/svg" xmlns="http://www.w3.org/2000/svg" xmlns:xlink="http://www.w3.org/1999/xlink" x="0px" y="0px" width="78px" height="62px" viewBox="0 0 78 62" enable-background="new 0 0 78 62" xml:space="preserve"> <g id="g12" transform="scale(0.1,0.1)"> <path id="path22" fill="#026C9B" d="M764.998,250.791c0,80.488-167.842,145.683-374.99,145.683 c-207.031,0-375.01-65.195-375.01-145.683v213.525C14.998,544.824,182.976,610,390.007,610c207.148,0,374.99-65.176,374.99-145.684 V250.791"/> <path id="path24" fill="none" stroke="#FFFFFF" stroke-width="4" d="M764.998,250.791c0,80.488-167.842,145.683-374.99,145.683 c-207.031,0-375.01-65.195-375.01-145.683v213.525C14.998,544.824,182.976,610,390.007,610c207.148,0,374.99-65.176,374.99-145.684 V250.791z"/> <path id="path26" fill="#026C9B" d="M390.007,396.474c207.148,0,374.99-65.195,374.99-145.683 c0-80.498-167.842-145.684-374.99-145.684c-207.031,0-375.01,65.186-375.01,145.684 C14.998,331.279,182.976,396.474,390.007,396.474"/> <path id="path28" fill="none" stroke="#FFFFFF" stroke-width="4" d="M390.007,396.474c207.148,0,374.99-65.195,374.99-145.683 c0-80.498-167.842-145.684-374.99-145.684c-207.031,0-375.01,65.186-375.01,145.684 C14.998,331.279,182.976,396.474,390.007,396.474z"/> <path id="path30" fill="#026C9B" d="M389.958,300.381c206.367,0,373.496-65.039,373.496-145.205 C763.455,75.039,596.326,10,389.958,10C183.728,10,16.472,75.039,16.472,155.176C16.472,235.342,183.728,300.381,389.958,300.381" /> <path id="path32" fill="none" stroke="#FFFFFF" stroke-width="4" d="M389.958,300.381c206.367,0,373.496-65.039,373.496-145.205 C763.455,75.039,596.326,10,389.958,10C183.728,10,16.472,75.039,16.472,155.176C16.472,235.342,183.728,300.381,389.958,300.381z" /> <path id="path34" fill="#026C9B" d="M763.455,155.176c0,80.166-167.129,145.205-373.496,145.205 c-206.23,0-373.486-65.039-373.486-145.205v102.842c0,80.312,167.256,145.049,373.486,145.049 c206.367,0,373.496-64.736,373.496-145.049V155.176"/> <path id="path36" fill="none" stroke="#FFFFFF" stroke-width="4" d="M763.455,155.176c0,80.166-167.129,145.205-373.496,145.205 c-206.23,0-373.486-65.039-373.486-145.205v102.842c0,80.312,167.256,145.049,373.486,145.049 c206.367,0,373.496-64.736,373.496-145.049V155.176z"/> <path id="path38" fill="#FFFFFF" d="M304.333,91.963l31.045,46.436L218.24,165.459l25.615-21.27L62.932,113.213l45.391-34.014 l174.478,29.58L304.333,91.963"/> <path id="path40" fill="#FFFFFF" d="M469.099,204.57l-21.182-47.881l105.547-21.143l-18.291,16.426l176.201,30.029l-42.334,33.857 L494.07,182.998L469.099,204.57"/> <path id="path42" fill="#FFFFFF" d="M411.306,66.66l118.428-32.305l1.445,50.596l-29.766-5.576l-57.783,47.744l-55.02-8.037 l59.766-46.67L411.306,66.66"/> <path id="path44" fill="#FFFFFF" d="M360.691,248.164l-112.705,21.143l-4.15-52.148l32.324,7.129l62.109-52.959l54.736,9.219 l-66.064,57.744L360.691,248.164"/> <path id="path46" fill="none" stroke="#FFFFFF" stroke-width="3" d="M305.007,162.627l100.928,6.592"/> <path id="path48" fill="none" stroke="#FFFFFF" stroke-width="3" d="M91.946,149.277l103.862,6.621"/> <path id="path50" fill="none" stroke="#FFFFFF" stroke-width="3" d="M48.386,102.832l83.706,7.266"/> <path id="path52" fill="none" stroke="#FFFFFF" stroke-width="3" d="M141.257,106.494L38.171,191.885"/> <path id="path54" fill="none" stroke="#FFFFFF" stroke-width="3" d="M243.992,118.916L99.333,240.371"/> <path id="path56" fill="none" stroke="#FFFFFF" stroke-width="3" d="M356.746,123.994L179.412,267.92"/> <path id="path58" fill="none" stroke="#FFFFFF" stroke-width="3" d="M142.712,203.047l104.189,6.65"/> <path id="path60" fill="none" stroke="#FFFFFF" stroke-width="3" d="M594.412,214.082l103.857,6.621"/> <path id="path62" fill="none" stroke="#FFFFFF" stroke-width="3" d="M384.441,200.596l103.691,6.621"/> <path id="path64" fill="none" stroke="#FFFFFF" stroke-width="3" d="M429.333,155.205L272.742,288.73"/> <path id="path66" fill="none" stroke="#FFFFFF" stroke-width="3" d="M540.867,164.717l-156.025,131.67"/> <path id="path68" fill="none" stroke="#FFFFFF" stroke-width="3" d="M643.591,171.289L504.46,293.828"/> <path id="path70" fill="none" stroke="#FFFFFF" stroke-width="3" d="M759.841,158.457l-96.777,94.16"/> <path id="path72" fill="none" stroke="#FFFFFF" stroke-width="3" d="M220.881,240.732l104.331,6.65"/> <path id="path74" fill="none" stroke="#FFFFFF" stroke-width="3" d="M434.021,254.346l104.443,6.641"/> <path id="path76" fill="none" stroke="#FFFFFF" stroke-width="3" d="M231.868,26.406l-97.075,84.131"/> <path id="path78" fill="none" stroke="#FFFFFF" stroke-width="3" d="M369.519,11.084L242.751,123.32"/> <path id="path80" fill="none" stroke="#FFFFFF" stroke-width="3" d="M642,78.291l71.631,9.219"/> <path id="path82" fill="none" stroke="#FFFFFF" stroke-width="3" d="M486.726,16.191L313.523,160.43"/> <path id="path84" fill="none" stroke="#FFFFFF" stroke-width="3" d="M582.585,28.926L415.623,167.363"/> <path id="path86" fill="none" stroke="#FFFFFF" stroke-width="3" d="M662.546,59.443L529.304,174.277"/> <path id="path88" fill="none" stroke="#FFFFFF" stroke-width="3" d="M731.365,100.273l-93.975,80.938"/> <path id="path90" fill="none" stroke="#FFFFFF" stroke-width="3" d="M268.484,104.805l104.307,6.797"/> <path id="path92" fill="none" stroke="#FFFFFF" stroke-width="3" d="M481.609,118.555l104.15,6.621"/> <path id="path94" fill="none" stroke="#FFFFFF" stroke-width="3" d="M692.634,132.061l61.582,3.809"/> </g> </svg> </pattern></defs><g id="ProcessOnG1002"><path id="ProcessOnPath1003" d="M224.0 60.0H896.0V520.5056838989258H224.0V60.0Z" fill="none"/><g id="ProcessOnG1004"><g id="ProcessOnG1005" transform="matrix(1.0,0.0,0.0,1.0,264.0,80.0)" opacity="1.0"><path id="ProcessOnPath1006" d="M0.0 0.0L36.0 0.0L36.0 80.0L0.0 80.0Z" stroke="#323232" stroke-width="0.0" stroke-dasharray="none" opacity="1.0" fill="url(#ProcessOnPattern1007)"/><g id="ProcessOnG1008" transform="matrix(1.0,0.0,0.0,1.0,-20.0,86.875)"><text id="ProcessOnText1009" fill="#000000" font-weight="normal" font-style="normal" text-decoration="none" font-family="微软雅黑" text-anchor="middle" font-size="13" x="37.0" y="13.325">blade11</text></g></g><g id="ProcessOnG1010" transform="matrix(1.0,0.0,0.0,1.0,822.0,80.0)" opacity="1.0"><path id="ProcessOnPath1011" d="M0.0 0.0L36.0 0.0L36.0 80.0L0.0 80.0Z" stroke="#323232" stroke-width="0.0" stroke-dasharray="none" opacity="1.0" fill="url(#ProcessOnPattern1012)"/><g id="ProcessOnG1013" transform="matrix(1.0,0.0,0.0,1.0,-20.0,86.875)"><text id="ProcessOnText1014" fill="#000000" font-weight="normal" font-style="normal" text-decoration="none" font-family="微软雅黑" text-anchor="middle" font-size="13" x="37.0" y="13.325">blade12</text></g></g><g id="ProcessOnG1015" transform="matrix(1.0,0.0,0.0,1.0,264.0,360.0)" opacity="1.0"><path id="ProcessOnPath1016" d="M0.0 0.0L36.0 0.0L36.0 80.0L0.0 80.0Z" stroke="#323232" stroke-width="0.0" stroke-dasharray="none" opacity="1.0" fill="url(#ProcessOnPattern1017)"/><g id="ProcessOnG1018" transform="matrix(1.0,0.0,0.0,1.0,-20.0,86.875)"><text id="ProcessOnText1019" fill="#000000" font-weight="normal" font-style="normal" text-decoration="none" font-family="微软雅黑" text-anchor="middle" font-size="13" x="37.0" y="13.325">blade15</text></g></g><g id="ProcessOnG1020" transform="matrix(1.0,0.0,0.0,1.0,822.0,360.0)" opacity="1.0"><path id="ProcessOnPath1021" d="M0.0 0.0L36.0 0.0L36.0 80.0L0.0 80.0Z" stroke="#323232" stroke-width="0.0" stroke-dasharray="none" opacity="1.0" fill="url(#ProcessOnPattern1022)"/><g id="ProcessOnG1023" transform="matrix(1.0,0.0,0.0,1.0,-20.0,86.875)"><text id="ProcessOnText1024" fill="#000000" font-weight="normal" font-style="normal" text-decoration="none" font-family="微软雅黑" text-anchor="middle" font-size="13" x="37.0" y="13.325">blade16</text></g></g><g id="ProcessOnG1025" transform="matrix(1.0,0.0,0.0,1.0,523.0028533935547,428.1079545021057)" opacity="1.0"><path id="ProcessOnPath1026" d="M0.0 0.0L75.178955078125 0.0L75.178955078125 49.27272939682007L0.0 49.27272939682007Z" stroke="#323232" stroke-width="0.0" stroke-dasharray="none" opacity="1.0" fill="url(#ProcessOnPattern1027)"/><g id="ProcessOnG1028" transform="matrix(1.0,0.0,0.0,1.0,-20.0,56.14772939682007)"><text id="ProcessOnText1029" fill="#000000" font-weight="normal" font-style="normal" text-decoration="none" font-family="微软雅黑" text-anchor="middle" font-size="13" x="56.5894775390625" y="13.325">Internet</text></g></g><g id="ProcessOnG1030" transform="matrix(1.0,0.0,0.0,1.0,264.0,330.6534118652344)" opacity="1.0"><path id="ProcessOnPath1031" d="M0.0 0.0L593.1846618652344 0.0L593.1846618652344 20.0L0.0 20.0Z" stroke="#323232" stroke-width="0.0" stroke-dasharray="none" opacity="1.0" fill="url(#ProcessOnPattern1032)"/><g id="ProcessOnG1033" transform="matrix(1.0,0.0,0.0,1.0,0.0,1.875)"><text id="ProcessOnText1034" fill="#ff0000" font-weight="normal" font-style="normal" text-decoration="none" font-family="微软雅黑" text-anchor="middle" font-size="13" x="295.5923309326172" y="13.325">192.168.0.0/16 以太网络</text></g></g><g id="ProcessOnG1035" transform="matrix(1.0,0.0,0.0,1.0,264.0,181.65341186523438)" opacity="1.0"><path id="ProcessOnPath1036" d="M0.0 0.0L593.1846618652344 0.0L593.1846618652344 20.0L0.0 20.0Z" stroke="#ff0000" stroke-width="0.0" stroke-dasharray="none" opacity="1.0" fill="url(#ProcessOnPattern1037)"/><g id="ProcessOnG1038" transform="matrix(1.0,0.0,0.0,1.0,0.0,1.875)"><text id="ProcessOnText1039" fill="#0000ff" font-weight="normal" font-style="normal" text-decoration="none" font-family="微软雅黑" text-anchor="middle" font-size="13" x="295.5923309326172" y="13.325">10.0.22.0/24 InfiniBand网络</text></g></g><g id="ProcessOnG1040"><path id="ProcessOnPath1041" d="M299.1846618652344 416.2897729873657L412.57411906630233 416.2897729873657L412.57411906630233 201.28977298736572" stroke="#0000ff" stroke-width="2.0" stroke-dasharray="none" fill="none"/></g><g id="ProcessOnG1042"><path id="ProcessOnPath1043" d="M299.1846618652344 139.8352279663086L412.57411906630233 139.8352279663086L412.57411906630233 181.8352279663086" stroke="#0000ff" stroke-width="2.0" stroke-dasharray="none" fill="none"/></g><g id="ProcessOnG1044"><path id="ProcessOnPath1045" d="M299.1846618652344 380.8352279663086L385.0552430003893 380.8352279663086L385.0552430003893 349.8352279663086" stroke="#ff0000" stroke-width="2.0" stroke-dasharray="none" fill="none"/></g><g id="ProcessOnG1046"><path id="ProcessOnPath1047" d="M299.1846618652344 102.92613983154297L385.0552430003893 102.92613983154297L385.0552430003893 330.92613983154297" stroke="#ff0000" stroke-width="2.0" stroke-dasharray="none" fill="none"/></g><g id="ProcessOnG1048"><path id="ProcessOnPath1049" d="M822.1846618652344 99.92613983154297L715.2817557913445 99.92613983154297L715.2817557913445 331.28977966308594" stroke="#ff0000" stroke-width="2.0" stroke-dasharray="none" fill="none"/></g><g id="ProcessOnG1050"><path id="ProcessOnPath1051" d="M822.1846618652344 385.92613983154297L715.2817557913445 385.92613983154297L715.2817557913445 350.28977966308594" stroke="#ff0000" stroke-width="2.0" stroke-dasharray="none" fill="none"/></g><g id="ProcessOnG1052"><path id="ProcessOnPath1053" d="M822.1846618652344 416.92613983154297L684.7052268292191 416.92613983154297L684.7052268292191 201.28977966308594" stroke="#0000ff" stroke-width="2.0" stroke-dasharray="none" fill="none"/></g><g id="ProcessOnG1054"><path id="ProcessOnPath1055" d="M822.1846618652344 140.28977966308594L683.1764003811129 140.28977966308594L683.1764003811129 182.28977966308594" stroke="#0000ff" stroke-width="2.0" stroke-dasharray="none" fill="none"/></g><g id="ProcessOnG1056"><path id="ProcessOnPath1057" d="M560.5923309326172 350.6534118652344L560.5923309326172 389.38068318367004L560.5923309326172 389.38068318367004L560.5923309326172 428.1079545021057" stroke="#ff0000" stroke-width="2.0" stroke-dasharray="none" fill="none"/></g><g id="ProcessOnG1058" transform="matrix(1.0,0.0,0.0,1.0,264.0,216.92613983154297)" opacity="1.0"><path id="ProcessOnPath1059" d="M0.0 0.0L593.1846618652344 0.0L593.1846618652344 21.0L0.0 21.0Z" stroke="#00ff00" stroke-width="0.0" stroke-dasharray="none" opacity="1.0" fill="url(#ProcessOnPattern1060)"/><g id="ProcessOnG1061" transform="matrix(1.0,0.0,0.0,1.0,0.0,2.375)"><text id="ProcessOnText1062" fill="#00ff00" font-weight="normal" font-style="normal" text-decoration="none" font-family="微软雅黑" text-anchor="middle" font-size="13" x="295.5923309326172" y="13.325">172.16.1.0/24 自服务网络</text></g></g><g id="ProcessOnG1063" transform="matrix(1.0,0.0,0.0,1.0,264.0,243.42613983154297)" opacity="1.0"><path id="ProcessOnPath1064" d="M0.0 0.0L77.0 0.0L77.0 65.0L0.0 65.0Z" stroke="#323232" stroke-width="0.0" stroke-dasharray="none" opacity="1.0" fill="url(#ProcessOnPattern1065)"/><g id="ProcessOnG1066" transform="matrix(1.0,0.0,0.0,1.0,-20.0,71.875)"><text id="ProcessOnText1067" fill="#000000" font-weight="normal" font-style="normal" text-decoration="none" font-family="微软雅黑" text-anchor="middle" font-size="13" x="57.5" y="13.325">虚拟机</text></g></g><g id="ProcessOnG1068" transform="matrix(1.0,0.0,0.0,1.0,781.0,241.42613983154297)" opacity="1.0"><path id="ProcessOnPath1069" d="M0.0 0.0L77.0 0.0L77.0 65.0L0.0 65.0Z" stroke="#323232" stroke-width="0.0" stroke-dasharray="none" opacity="1.0" fill="url(#ProcessOnPattern1070)"/><g id="ProcessOnG1071" transform="matrix(1.0,0.0,0.0,1.0,-20.0,71.875)"><text id="ProcessOnText1072" fill="#000000" font-weight="normal" font-style="normal" text-decoration="none" font-family="微软雅黑" text-anchor="middle" font-size="13" x="57.5" y="13.325">虚拟机</text></g></g><g id="ProcessOnG1073"><path id="ProcessOnPath1074" d="M369.6392059326172 236.92613983154297L369.6392059326172 275.92613983154297L341.0 275.92613983154297" stroke="#00ff00" stroke-width="2.0" stroke-dasharray="none" fill="none"/></g><g id="ProcessOnG1075"><path id="ProcessOnPath1076" d="M762.6392059326172 236.92613983154297L762.6392059326172 273.92613983154297L781.0 273.92613983154297" stroke="#00ff00" stroke-width="2.0" stroke-dasharray="none" fill="none"/></g><g id="ProcessOnG1077"><path id="ProcessOnPath1078" d="M560.5923309326172 237.92613983154297L560.5923309326172 255.92613983154297L560.5923309326172 255.92613983154297L560.5923309326172 273.92613983154297" stroke="#00ff00" stroke-width="2.0" stroke-dasharray="none" fill="none"/></g><g id="ProcessOnG1079" transform="matrix(1.0,0.0,0.0,1.0,538.1846618652344,273.92613983154297)" opacity="1.0"><path id="ProcessOnPath1080" d="M0.0 0.0L44.815338134765625 0.0L44.815338134765625 34.5L0.0 34.5Z" stroke="#323232" stroke-width="0.0" stroke-dasharray="none" opacity="1.0" fill="url(#ProcessOnPattern1081)"/></g><g id="ProcessOnG1082"><path id="ProcessOnPath1083" d="M560.5923309326172 308.42613983154297L560.5923309326172 319.5397758483887L560.5923309326172 319.5397758483887L560.5923309326172 330.6534118652344" stroke="#ff0000" stroke-width="2.0" stroke-dasharray="none" fill="none"/></g></g></g></svg>