<svg xmlns="http://www.w3.org/2000/svg" xmlns:xlink="http://www.w3.org/1999/xlink" id="processonSvg1000" viewBox="96.91195678710938 60.0 995.0880432128906 360.0" width="995.0880432128906" height="360.0"><defs id="ProcessOnDefs1001"/><g id="ProcessOnG1002"><path id="ProcessOnPath1003" d="M96.91195678710938 60.0H1092.0V420.0H96.91195678710938V60.0Z" fill="none"/><g id="ProcessOnG1004"><g id="ProcessOnG1005" transform="matrix(1.0,0.0,0.0,1.0,210.0,80.0)" opacity="1.0"><path id="ProcessOnPath1006" d="M0.0 0.0L200.0 0.0L200.0 320.0L0.0 320.0Z" stroke="#323232" stroke-width="2.0" stroke-dasharray="none" opacity="1.0" fill="#ffffff"/></g><g id="ProcessOnG1007" transform="matrix(1.0,0.0,0.0,1.0,220.0,310.0)" opacity="1.0"><path id="ProcessOnPath1008" d="M0.0 0.0L80.0 0.0L80.0 80.0L0.0 80.0Z" stroke="#323232" stroke-width="2.0" stroke-dasharray="none" opacity="1.0" fill="#ffffff"/><g id="ProcessOnG1009" transform="matrix(1.0,0.0,0.0,1.0,10.0,31.875)"><text id="ProcessOnText1010" fill="#000000" font-weight="normal" font-style="normal" text-decoration="none" font-family="微软雅黑" text-anchor="middle" font-size="13" x="29.0" y="13.325">OSD</text></g></g><g id="ProcessOnG1011" transform="matrix(1.0,0.0,0.0,1.0,320.0,310.0)" opacity="1.0"><path id="ProcessOnPath1012" d="M0.0 0.0L80.0 0.0L80.0 80.0L0.0 80.0Z" stroke="#323232" stroke-width="2.0" stroke-dasharray="none" opacity="1.0" fill="#ffffff"/><g id="ProcessOnG1013" transform="matrix(1.0,0.0,0.0,1.0,10.0,31.875)"><text id="ProcessOnText1014" fill="#000000" font-weight="normal" font-style="normal" text-decoration="none" font-family="微软雅黑" text-anchor="middle" font-size="13" x="29.0" y="13.325">OSD</text></g></g><g id="ProcessOnG1015" transform="matrix(1.0,0.0,0.0,1.0,432.0,80.0)" opacity="1.0"><path id="ProcessOnPath1016" d="M0.0 0.0L200.0 0.0L200.0 320.0L0.0 320.0Z" stroke="#323232" stroke-width="2.0" stroke-dasharray="none" opacity="1.0" fill="#ffffff"/></g><g id="ProcessOnG1017" transform="matrix(1.0,0.0,0.0,1.0,442.0,310.0)" opacity="1.0"><path id="ProcessOnPath1018" d="M0.0 0.0L80.0 0.0L80.0 80.0L0.0 80.0Z" stroke="#323232" stroke-width="2.0" stroke-dasharray="none" opacity="1.0" fill="#ffffff"/><g id="ProcessOnG1019" transform="matrix(1.0,0.0,0.0,1.0,10.0,31.875)"><text id="ProcessOnText1020" fill="#000000" font-weight="normal" font-style="normal" text-decoration="none" font-family="微软雅黑" text-anchor="middle" font-size="13" x="29.0" y="13.325">OSD</text></g></g><g id="ProcessOnG1021" transform="matrix(1.0,0.0,0.0,1.0,542.0,310.0)" opacity="1.0"><path id="ProcessOnPath1022" d="M0.0 0.0L80.0 0.0L80.0 80.0L0.0 80.0Z" stroke="#323232" stroke-width="2.0" stroke-dasharray="none" opacity="1.0" fill="#ffffff"/><g id="ProcessOnG1023" transform="matrix(1.0,0.0,0.0,1.0,10.0,31.875)"><text id="ProcessOnText1024" fill="#000000" font-weight="normal" font-style="normal" text-decoration="none" font-family="微软雅黑" text-anchor="middle" font-size="13" x="29.0" y="13.325">OSD</text></g></g><g id="ProcessOnG1025" transform="matrix(1.0,0.0,0.0,1.0,652.0,80.0)" opacity="1.0"><path id="ProcessOnPath1026" d="M0.0 0.0L200.0 0.0L200.0 320.0L0.0 320.0Z" stroke="#323232" stroke-width="2.0" stroke-dasharray="none" opacity="1.0" fill="#ffffff"/></g><g id="ProcessOnG1027" transform="matrix(1.0,0.0,0.0,1.0,662.0,310.0)" opacity="1.0"><path id="ProcessOnPath1028" d="M0.0 0.0L80.0 0.0L80.0 80.0L0.0 80.0Z" stroke="#323232" stroke-width="2.0" stroke-dasharray="none" opacity="1.0" fill="#ffffff"/><g id="ProcessOnG1029" transform="matrix(1.0,0.0,0.0,1.0,10.0,31.875)"><text id="ProcessOnText1030" fill="#000000" font-weight="normal" font-style="normal" text-decoration="none" font-family="微软雅黑" text-anchor="middle" font-size="13" x="29.0" y="13.325">OSD</text></g></g><g id="ProcessOnG1031" transform="matrix(1.0,0.0,0.0,1.0,762.0,310.0)" opacity="1.0"><path id="ProcessOnPath1032" d="M0.0 0.0L80.0 0.0L80.0 80.0L0.0 80.0Z" stroke="#323232" stroke-width="2.0" stroke-dasharray="none" opacity="1.0" fill="#ffffff"/><g id="ProcessOnG1033" transform="matrix(1.0,0.0,0.0,1.0,10.0,31.875)"><text id="ProcessOnText1034" fill="#000000" font-weight="normal" font-style="normal" text-decoration="none" font-family="微软雅黑" text-anchor="middle" font-size="13" x="29.0" y="13.325">OSD</text></g></g><g id="ProcessOnG1035" transform="matrix(1.0,0.0,0.0,1.0,872.0,80.0)" opacity="1.0"><path id="ProcessOnPath1036" d="M0.0 0.0L200.0 0.0L200.0 320.0L0.0 320.0Z" stroke="#323232" stroke-width="2.0" stroke-dasharray="none" opacity="1.0" fill="#ffffff"/></g><g id="ProcessOnG1037" transform="matrix(1.0,0.0,0.0,1.0,882.0,310.0)" opacity="1.0"><path id="ProcessOnPath1038" d="M0.0 0.0L80.0 0.0L80.0 80.0L0.0 80.0Z" stroke="#323232" stroke-width="2.0" stroke-dasharray="none" opacity="1.0" fill="#ffffff"/><g id="ProcessOnG1039" transform="matrix(1.0,0.0,0.0,1.0,10.0,31.875)"><text id="ProcessOnText1040" fill="#000000" font-weight="normal" font-style="normal" text-decoration="none" font-family="微软雅黑" text-anchor="middle" font-size="13" x="29.0" y="13.325">OSD</text></g></g><g id="ProcessOnG1041" transform="matrix(1.0,0.0,0.0,1.0,982.0,310.0)" opacity="1.0"><path id="ProcessOnPath1042" d="M0.0 0.0L80.0 0.0L80.0 80.0L0.0 80.0Z" stroke="#323232" stroke-width="2.0" stroke-dasharray="none" opacity="1.0" fill="#ffffff"/><g id="ProcessOnG1043" transform="matrix(1.0,0.0,0.0,1.0,10.0,31.875)"><text id="ProcessOnText1044" fill="#000000" font-weight="normal" font-style="normal" text-decoration="none" font-family="微软雅黑" text-anchor="middle" font-size="13" x="29.0" y="13.325">OSD</text></g></g><g id="ProcessOnG1045" transform="matrix(1.0,0.0,0.0,1.0,220.0,270.4716033935547)" opacity="1.0"><path id="ProcessOnPath1046" d="M0.0 0.0L842.0 0.0L842.0 35.0L0.0 35.0Z" stroke="#323232" stroke-width="2.0" stroke-dasharray="none" opacity="1.0" fill="#ffffff"/><g id="ProcessOnG1047" transform="matrix(1.0,0.0,0.0,1.0,10.0,9.375)"><text id="ProcessOnText1048" fill="#000000" font-weight="normal" font-style="normal" text-decoration="none" font-family="微软雅黑" text-anchor="middle" font-size="13" x="410.0" y="13.325">librados</text></g></g><g id="ProcessOnG1049" transform="matrix(1.0,0.0,0.0,1.0,220.0,230.4716033935547)" opacity="1.0"><path id="ProcessOnPath1050" d="M0.0 0.0L842.0 0.0L842.0 35.0L0.0 35.0Z" stroke="#323232" stroke-width="2.0" stroke-dasharray="none" opacity="1.0" fill="#ffffff"/><g id="ProcessOnG1051" transform="matrix(1.0,0.0,0.0,1.0,10.0,9.375)"><text id="ProcessOnText1052" fill="#000000" font-weight="normal" font-style="normal" text-decoration="none" font-family="微软雅黑" text-anchor="middle" font-size="13" x="410.0" y="13.325">librbd</text></g></g><g id="ProcessOnG1053" transform="matrix(1.0,0.0,0.0,1.0,882.0,170.0)" opacity="1.0"><path id="ProcessOnPath1054" d="M0.0 0.0L180.0 0.0L180.0 30.909103393554688L0.0 30.909103393554688Z" stroke="#323232" stroke-width="2.0" stroke-dasharray="none" opacity="1.0" fill="#ffffff"/><g id="ProcessOnG1055" transform="matrix(1.0,0.0,0.0,1.0,10.0,7.329551696777344)"><text id="ProcessOnText1056" fill="#000000" font-weight="normal" font-style="normal" text-decoration="none" font-family="微软雅黑" text-anchor="middle" font-size="13" x="79.0" y="13.325">QEMU</text></g></g><g id="ProcessOnG1057" transform="matrix(1.0,0.0,0.0,1.0,222.0,130.4716033935547)" opacity="1.0"><path id="ProcessOnPath1058" d="M0.0 0.0L842.0 0.0L842.0 35.0L0.0 35.0Z" stroke="#323232" stroke-width="2.0" stroke-dasharray="none" opacity="1.0" fill="#ffffff"/><g id="ProcessOnG1059" transform="matrix(1.0,0.0,0.0,1.0,10.0,9.375)"><text id="ProcessOnText1060" fill="#000000" font-weight="normal" font-style="normal" text-decoration="none" font-family="微软雅黑" text-anchor="middle" font-size="13" x="410.0" y="13.325">libvirt</text></g></g><g id="ProcessOnG1061" transform="matrix(1.0,0.0,0.0,1.0,662.0,170.0)" opacity="1.0"><path id="ProcessOnPath1062" d="M0.0 0.0L180.0 0.0L180.0 30.909103393554688L0.0 30.909103393554688Z" stroke="#323232" stroke-width="2.0" stroke-dasharray="none" opacity="1.0" fill="#ffffff"/><g id="ProcessOnG1063" transform="matrix(1.0,0.0,0.0,1.0,10.0,7.329551696777344)"><text id="ProcessOnText1064" fill="#000000" font-weight="normal" font-style="normal" text-decoration="none" font-family="微软雅黑" text-anchor="middle" font-size="13" x="79.0" y="13.325">QEMU</text></g></g><g id="ProcessOnG1065" transform="matrix(1.0,0.0,0.0,1.0,442.0,170.0)" opacity="1.0"><path id="ProcessOnPath1066" d="M0.0 0.0L180.0 0.0L180.0 30.909103393554688L0.0 30.909103393554688Z" stroke="#323232" stroke-width="2.0" stroke-dasharray="none" opacity="1.0" fill="#ffffff"/><g id="ProcessOnG1067" transform="matrix(1.0,0.0,0.0,1.0,10.0,7.329551696777344)"><text id="ProcessOnText1068" fill="#000000" font-weight="normal" font-style="normal" text-decoration="none" font-family="微软雅黑" text-anchor="middle" font-size="13" x="79.0" y="13.325">QEMU</text></g></g><g id="ProcessOnG1069" transform="matrix(1.0,0.0,0.0,1.0,222.0,170.0)" opacity="1.0"><path id="ProcessOnPath1070" d="M0.0 0.0L180.0 0.0L180.0 30.909103393554688L0.0 30.909103393554688Z" stroke="#323232" stroke-width="2.0" stroke-dasharray="none" opacity="1.0" fill="#ffffff"/><g id="ProcessOnG1071" transform="matrix(1.0,0.0,0.0,1.0,10.0,7.329551696777344)"><text id="ProcessOnText1072" fill="#000000" font-weight="normal" font-style="normal" text-decoration="none" font-family="微软雅黑" text-anchor="middle" font-size="13" x="79.0" y="13.325">QEMU</text></g></g><g id="ProcessOnG1073" transform="matrix(1.0,0.0,0.0,1.0,222.0,90.47160339355469)" opacity="1.0"><path id="ProcessOnPath1074" d="M0.0 0.0L842.0 0.0L842.0 35.0L0.0 35.0Z" stroke="#323232" stroke-width="2.0" stroke-dasharray="none" opacity="1.0" fill="#ffffff"/><g id="ProcessOnG1075" transform="matrix(1.0,0.0,0.0,1.0,10.0,9.375)"><text id="ProcessOnText1076" fill="#000000" font-weight="normal" font-style="normal" text-decoration="none" font-family="微软雅黑" text-anchor="middle" font-size="13" x="410.0" y="13.325">OpenStack</text></g></g><g id="ProcessOnG1077" transform="matrix(1.0,0.0,0.0,1.0,116.91195678710938,230.4716033935547)" opacity="1.0"><path id="ProcessOnPath1078" d="M15.5 0.0L0.0 0.0L0.0 159.5283966064453L15.5 159.5283966064453" stroke="#323232" stroke-width="2.0" stroke-dasharray="none" opacity="1.0" fill="none"/><path id="ProcessOnPath1079" d="M0.0 0.0L93.0 0.0L93.0 159.5283966064453L0.0 159.5283966064453Z" stroke="#323232" stroke-width="0.0" stroke-dasharray="none" opacity="1.0" fill="none"/><g id="ProcessOnG1080" transform="matrix(1.0,0.0,0.0,1.0,10.0,63.514198303222656)"><text id="ProcessOnText1081" fill="#000000" font-weight="normal" font-style="normal" text-decoration="none" font-family="微软雅黑" text-anchor="middle" font-size="13" x="35.5" y="13.325">Ceph分布式</text><text id="ProcessOnText1082" fill="#000000" font-weight="normal" font-style="normal" text-decoration="none" font-family="微软雅黑" text-anchor="middle" font-size="13" x="35.5" y="29.575">对象存储</text></g></g><g id="ProcessOnG1083" transform="matrix(1.0,0.0,0.0,1.0,116.91195678710938,130.4716033935547)" opacity="1.0"><path id="ProcessOnPath1084" d="M17.0 0.0L0.0 0.0L0.0 70.4375L17.0 70.4375" stroke="#323232" stroke-width="2.0" stroke-dasharray="none" opacity="1.0" fill="none"/><path id="ProcessOnPath1085" d="M0.0 0.0L102.0 0.0L102.0 70.4375L0.0 70.4375Z" stroke="#323232" stroke-width="0.0" stroke-dasharray="none" opacity="1.0" fill="none"/><g id="ProcessOnG1086" transform="matrix(1.0,0.0,0.0,1.0,10.0,10.84375)"><text id="ProcessOnText1087" fill="#000000" font-weight="normal" font-style="normal" text-decoration="none" font-family="微软雅黑" text-anchor="middle" font-size="13" x="40.0" y="13.325">虚拟机管理器</text><text id="ProcessOnText1088" fill="#000000" font-weight="normal" font-style="normal" text-decoration="none" font-family="微软雅黑" text-anchor="middle" font-size="13" x="40.0" y="29.575">QEMU和管理</text><text id="ProcessOnText1089" fill="#000000" font-weight="normal" font-style="normal" text-decoration="none" font-family="微软雅黑" text-anchor="middle" font-size="13" x="40.0" y="45.825">程序libvirt</text></g></g></g></g></svg>